<svg width="20" height="21" viewBox="0 0 20 21" fill="none" xmlns="http://www.w3.org/2000/svg">
<path d="M1.66669 10.6249C1.66669 7.48222 1.66669 5.91087 2.643 4.93456C3.61931 3.95825 5.19066 3.95825 8.33335 3.95825H11.6667C14.8094 3.95825 16.3807 3.95825 17.357 4.93456C18.3334 5.91087 18.3334 7.48222 18.3334 10.6249V12.2916C18.3334 15.4343 18.3334 17.0056 17.357 17.9819C16.3807 18.9583 14.8094 18.9583 11.6667 18.9583H8.33335C5.19066 18.9583 3.61931 18.9583 2.643 17.9819C1.66669 17.0056 1.66669 15.4343 1.66669 12.2916V10.6249Z" stroke="#70A980" stroke-width="1.5"/>
<path d="M5.83331 3.95825V2.70825" stroke="#70A980" stroke-width="1.5" stroke-linecap="round"/>
<path d="M14.1667 3.95825V2.70825" stroke="#70A980" stroke-width="1.5" stroke-linecap="round"/>
<circle cx="13.75" cy="14.375" r="1.25" stroke="#70A980" stroke-width="1.5"/>
<path d="M2.08331 8.125H17.9166" stroke="#70A980" stroke-width="1.5" stroke-linecap="round"/>
</svg>
